<svg width="358" height="194" viewBox="0 0 358 194" fill="none" xmlns="http://www.w3.org/2000/svg">
<path d="M248.972 9.30182C246.39 5.17467 240.242 5.17467 237.66 9.36342L162.047 132.747L161.678 133.301C154.178 146.545 146.986 151.535 143.482 153.259C142.56 153.691 141.515 153.937 140.531 153.937H119.937H119.63H105.982H68.2373H57.4178H13.0334C8.05395 153.937 4.73433 159.296 7.13183 163.608C16.9062 181.349 35.7789 193.36 57.4178 193.36H105.982H119.937H144.834L145.572 193.299C150.305 192.929 175.141 189.172 195.796 153.013L237.968 84.3297C240.55 80.141 246.636 80.0794 249.218 84.2065L281.983 136.012C283.213 137.983 285.303 139.091 287.639 139.091H318.438C323.663 139.091 326.86 133.363 324.093 128.866L248.972 9.30182Z" fill="#212D56"/>
<path d="M176.124 76.8759C176.923 75.5207 177.353 74.0424 177.353 72.5024V56.4866C177.353 41.0251 171.329 26.6725 160.325 16.0774C149.567 5.66714 135.182 0 119.936 0H57.417C42.1714 0 27.8478 5.72873 17.0898 16.139C6.08595 26.7341 0 41.0867 0 56.4866V130.775C0 135.395 3.74993 139.153 8.3605 139.153H31.106C35.7166 139.153 39.4665 135.395 39.4665 130.775V56.4866C39.4665 46.7539 47.2122 39.4236 57.4784 39.4236H119.936C130.203 39.4236 137.948 46.7539 137.948 56.4866V136.196C137.948 137.859 140.223 138.537 141.083 137.058L176.124 76.8759Z" fill="#9D3535"/>
<path d="M334.974 153.996H252.783C247.558 153.996 244.361 159.725 247.127 164.222L263.418 190.401C264.647 192.372 266.737 193.543 269.074 193.543H351.326C356.551 193.543 359.748 187.814 356.982 183.317L340.63 157.138C339.4 155.166 337.31 153.996 334.974 153.996Z" fill="#9D3535"/>
</svg>
